<svg width="193" height="29" viewBox="0 0 193 29" fill="none" xmlns="http://www.w3.org/2000/svg">
<path d="M50.4922 20.2578V23H41.9023V20.2578H50.4922ZM43.0391 5.9375V23H39.5234V5.9375H43.0391ZM51.7578 16.7891V16.543C51.7578 15.6133 51.8906 14.7578 52.1562 13.9766C52.4219 13.1875 52.8086 12.5039 53.3164 11.9258C53.8242 11.3477 54.4492 10.8984 55.1914 10.5781C55.9336 10.25 56.7852 10.0859 57.7461 10.0859C58.707 10.0859 59.5625 10.25 60.3125 10.5781C61.0625 10.8984 61.6914 11.3477 62.1992 11.9258C62.7148 12.5039 63.1055 13.1875 63.3711 13.9766C63.6367 14.7578 63.7695 15.6133 63.7695 16.543V16.7891C63.7695 17.7109 63.6367 18.5664 63.3711 19.3555C63.1055 20.1367 62.7148 20.8203 62.1992 21.4062C61.6914 21.9844 61.0664 22.4336 60.3242 22.7539C59.582 23.0742 58.7305 23.2344 57.7695 23.2344C56.8086 23.2344 55.9531 23.0742 55.2031 22.7539C54.4609 22.4336 53.832 21.9844 53.3164 21.4062C52.8086 20.8203 52.4219 20.1367 52.1562 19.3555C51.8906 18.5664 51.7578 17.7109 51.7578 16.7891ZM55.1328 16.543V16.7891C55.1328 17.3203 55.1797 17.8164 55.2734 18.2773C55.3672 18.7383 55.5156 19.1445 55.7188 19.4961C55.9297 19.8398 56.2031 20.1094 56.5391 20.3047C56.875 20.5 57.2852 20.5977 57.7695 20.5977C58.2383 20.5977 58.6406 20.5 58.9766 20.3047C59.3125 20.1094 59.582 19.8398 59.7852 19.4961C59.9883 19.1445 60.1367 18.7383 60.2305 18.2773C60.332 17.8164 60.3828 17.3203 60.3828 16.7891V16.543C60.3828 16.0273 60.332 15.543 60.2305 15.0898C60.1367 14.6289 59.9844 14.2227 59.7734 13.8711C59.5703 13.5117 59.3008 13.2305 58.9648 13.0273C58.6289 12.8242 58.2227 12.7227 57.7461 12.7227C57.2695 12.7227 56.8633 12.8242 56.5273 13.0273C56.1992 13.2305 55.9297 13.5117 55.7188 13.8711C55.5156 14.2227 55.3672 14.6289 55.2734 15.0898C55.1797 15.543 55.1328 16.0273 55.1328 16.543ZM69.2188 12.9453V23H65.832V10.3203H69.0078L69.2188 12.9453ZM68.75 16.2148H67.8125C67.8125 15.332 67.918 14.5195 68.1289 13.7773C68.3477 13.0273 68.6641 12.3789 69.0781 11.832C69.5 11.2773 70.0195 10.8477 70.6367 10.543C71.2539 10.2383 71.9688 10.0859 72.7812 10.0859C73.3438 10.0859 73.8594 10.1719 74.3281 10.3438C74.7969 10.5078 75.1992 10.7695 75.5352 11.1289C75.8789 11.4805 76.1445 11.9414 76.332 12.5117C76.5195 13.0742 76.6133 13.75 76.6133 14.5391V23H73.2383V14.9141C73.2383 14.3359 73.1602 13.8906 73.0039 13.5781C72.8477 13.2656 72.625 13.0469 72.3359 12.9219C72.0547 12.7969 71.7148 12.7344 71.3164 12.7344C70.8789 12.7344 70.4961 12.8242 70.168 13.0039C69.8477 13.1836 69.582 13.4336 69.3711 13.7539C69.1602 14.0664 69.0039 14.4336 68.9023 14.8555C68.8008 15.2773 68.75 15.7305 68.75 16.2148ZM76.2969 15.8281L75.0898 15.9805C75.0898 15.1523 75.1914 14.3828 75.3945 13.6719C75.6055 12.9609 75.9141 12.3359 76.3203 11.7969C76.7344 11.2578 77.2461 10.8398 77.8555 10.543C78.4648 10.2383 79.168 10.0859 79.9648 10.0859C80.5742 10.0859 81.1289 10.1758 81.6289 10.3555C82.1289 10.5273 82.5547 10.8047 82.9062 11.1875C83.2656 11.5625 83.5391 12.0547 83.7266 12.6641C83.9219 13.2734 84.0195 14.0195 84.0195 14.9023V23H80.6328V14.9023C80.6328 14.3164 80.5547 13.8711 80.3984 13.5664C80.25 13.2539 80.0312 13.0391 79.7422 12.9219C79.4609 12.7969 79.125 12.7344 78.7344 12.7344C78.3281 12.7344 77.9727 12.8164 77.668 12.9805C77.3633 13.1367 77.1094 13.3555 76.9062 13.6367C76.7031 13.918 76.5508 14.2461 76.4492 14.6211C76.3477 14.9883 76.2969 15.3906 76.2969 15.8281ZM93.4766 20.1406V14.4922C93.4766 14.0859 93.4102 13.7383 93.2773 13.4492C93.1445 13.1523 92.9375 12.9219 92.6562 12.7578C92.3828 12.5938 92.0273 12.5117 91.5898 12.5117C91.2148 12.5117 90.8906 12.5781 90.6172 12.7109C90.3438 12.8359 90.1328 13.0195 89.9844 13.2617C89.8359 13.4961 89.7617 13.7734 89.7617 14.0938H86.3867C86.3867 13.5547 86.5117 13.043 86.7617 12.5586C87.0117 12.0742 87.375 11.6484 87.8516 11.2812C88.3281 10.9062 88.8945 10.6133 89.5508 10.4023C90.2148 10.1914 90.957 10.0859 91.7773 10.0859C92.7617 10.0859 93.6367 10.25 94.4023 10.5781C95.168 10.9062 95.7695 11.3984 96.207 12.0547C96.6523 12.7109 96.875 13.5312 96.875 14.5156V19.9414C96.875 20.6367 96.918 21.207 97.0039 21.6523C97.0898 22.0898 97.2148 22.4727 97.3789 22.8008V23H93.9688C93.8047 22.6562 93.6797 22.2266 93.5938 21.7109C93.5156 21.1875 93.4766 20.6641 93.4766 20.1406ZM93.9219 15.2773L93.9453 17.1875H92.0586C91.6133 17.1875 91.2266 17.2383 90.8984 17.3398C90.5703 17.4414 90.3008 17.5859 90.0898 17.7734C89.8789 17.9531 89.7227 18.1641 89.6211 18.4062C89.5273 18.6484 89.4805 18.9141 89.4805 19.2031C89.4805 19.4922 89.5469 19.7539 89.6797 19.9883C89.8125 20.2148 90.0039 20.3945 90.2539 20.5273C90.5039 20.6523 90.7969 20.7148 91.1328 20.7148C91.6406 20.7148 92.082 20.6133 92.457 20.4102C92.832 20.207 93.1211 19.957 93.3242 19.6602C93.5352 19.3633 93.6445 19.082 93.6523 18.8164L94.543 20.2461C94.418 20.5664 94.2461 20.8984 94.0273 21.2422C93.8164 21.5859 93.5469 21.9102 93.2188 22.2148C92.8906 22.5117 92.4961 22.7578 92.0352 22.9531C91.5742 23.1406 91.0273 23.2344 90.3945 23.2344C89.5898 23.2344 88.8594 23.0742 88.2031 22.7539C87.5547 22.4258 87.0391 21.9766 86.6562 21.4062C86.2812 20.8281 86.0938 20.1719 86.0938 19.4375C86.0938 18.7734 86.2188 18.1836 86.4688 17.668C86.7188 17.1523 87.0859 16.7188 87.5703 16.3672C88.0625 16.0078 88.6758 15.7383 89.4102 15.5586C90.1445 15.3711 90.9961 15.2773 91.9648 15.2773H93.9219ZM102.781 13.0273V23H99.4062V10.3203H102.57L102.781 13.0273ZM102.289 16.2148H101.375C101.375 15.2773 101.496 14.4336 101.738 13.6836C101.98 12.9258 102.32 12.2812 102.758 11.75C103.195 11.2109 103.715 10.8008 104.316 10.5195C104.926 10.2305 105.605 10.0859 106.355 10.0859C106.949 10.0859 107.492 10.1719 107.984 10.3438C108.477 10.5156 108.898 10.7891 109.25 11.1641C109.609 11.5391 109.883 12.0352 110.07 12.6523C110.266 13.2695 110.363 14.0234 110.363 14.9141V23H106.965V14.9023C106.965 14.3398 106.887 13.9023 106.73 13.5898C106.574 13.2773 106.344 13.0586 106.039 12.9336C105.742 12.8008 105.375 12.7344 104.938 12.7344C104.484 12.7344 104.09 12.8242 103.754 13.0039C103.426 13.1836 103.152 13.4336 102.934 13.7539C102.723 14.0664 102.562 14.4336 102.453 14.8555C102.344 15.2773 102.289 15.7305 102.289 16.2148ZM132.641 14.082V20.8438C132.375 21.1641 131.965 21.5117 131.41 21.8867C130.855 22.2539 130.141 22.5703 129.266 22.8359C128.391 23.1016 127.332 23.2344 126.09 23.2344C124.988 23.2344 123.984 23.0547 123.078 22.6953C122.172 22.3281 121.391 21.793 120.734 21.0898C120.086 20.3867 119.586 19.5273 119.234 18.5117C118.883 17.4883 118.707 16.3203 118.707 15.0078V13.9414C118.707 12.6289 118.875 11.4609 119.211 10.4375C119.555 9.41406 120.043 8.55078 120.676 7.84766C121.309 7.14453 122.062 6.60937 122.938 6.24219C123.812 5.875 124.785 5.69141 125.855 5.69141C127.34 5.69141 128.559 5.93359 129.512 6.41797C130.465 6.89453 131.191 7.55859 131.691 8.41016C132.199 9.25391 132.512 10.2227 132.629 11.3164H129.219C129.133 10.7383 128.969 10.2344 128.727 9.80469C128.484 9.375 128.137 9.03906 127.684 8.79688C127.238 8.55469 126.66 8.43359 125.949 8.43359C125.363 8.43359 124.84 8.55469 124.379 8.79688C123.926 9.03125 123.543 9.37891 123.23 9.83984C122.918 10.3008 122.68 10.8711 122.516 11.5508C122.352 12.2305 122.27 13.0195 122.27 13.918V15.0078C122.27 15.8984 122.355 16.6875 122.527 17.375C122.699 18.0547 122.953 18.6289 123.289 19.0977C123.633 19.5586 124.055 19.9062 124.555 20.1406C125.055 20.375 125.637 20.4922 126.301 20.4922C126.855 20.4922 127.316 20.4453 127.684 20.3516C128.059 20.2578 128.359 20.1445 128.586 20.0117C128.82 19.8711 129 19.7383 129.125 19.6133V16.5898H125.914V14.082H132.641ZM142.109 20.1406V14.4922C142.109 14.0859 142.043 13.7383 141.91 13.4492C141.777 13.1523 141.57 12.9219 141.289 12.7578C141.016 12.5938 140.66 12.5117 140.223 12.5117C139.848 12.5117 139.523 12.5781 139.25 12.7109C138.977 12.8359 138.766 13.0195 138.617 13.2617C138.469 13.4961 138.395 13.7734 138.395 14.0938H135.02C135.02 13.5547 135.145 13.043 135.395 12.5586C135.645 12.0742 136.008 11.6484 136.484 11.2812C136.961 10.9062 137.527 10.6133 138.184 10.4023C138.848 10.1914 139.59 10.0859 140.41 10.0859C141.395 10.0859 142.27 10.25 143.035 10.5781C143.801 10.9062 144.402 11.3984 144.84 12.0547C145.285 12.7109 145.508 13.5312 145.508 14.5156V19.9414C145.508 20.6367 145.551 21.207 145.637 21.6523C145.723 22.0898 145.848 22.4727 146.012 22.8008V23H142.602C142.438 22.6562 142.312 22.2266 142.227 21.7109C142.148 21.1875 142.109 20.6641 142.109 20.1406ZM142.555 15.2773L142.578 17.1875H140.691C140.246 17.1875 139.859 17.2383 139.531 17.3398C139.203 17.4414 138.934 17.5859 138.723 17.7734C138.512 17.9531 138.355 18.1641 138.254 18.4062C138.16 18.6484 138.113 18.9141 138.113 19.2031C138.113 19.4922 138.18 19.7539 138.312 19.9883C138.445 20.2148 138.637 20.3945 138.887 20.5273C139.137 20.6523 139.43 20.7148 139.766 20.7148C140.273 20.7148 140.715 20.6133 141.09 20.4102C141.465 20.207 141.754 19.957 141.957 19.6602C142.168 19.3633 142.277 19.082 142.285 18.8164L143.176 20.2461C143.051 20.5664 142.879 20.8984 142.66 21.2422C142.449 21.5859 142.18 21.9102 141.852 22.2148C141.523 22.5117 141.129 22.7578 140.668 22.9531C140.207 23.1406 139.66 23.2344 139.027 23.2344C138.223 23.2344 137.492 23.0742 136.836 22.7539C136.188 22.4258 135.672 21.9766 135.289 21.4062C134.914 20.8281 134.727 20.1719 134.727 19.4375C134.727 18.7734 134.852 18.1836 135.102 17.668C135.352 17.1523 135.719 16.7188 136.203 16.3672C136.695 16.0078 137.309 15.7383 138.043 15.5586C138.777 15.3711 139.629 15.2773 140.598 15.2773H142.555ZM151.484 12.9453V23H148.098V10.3203H151.273L151.484 12.9453ZM151.016 16.2148H150.078C150.078 15.332 150.184 14.5195 150.395 13.7773C150.613 13.0273 150.93 12.3789 151.344 11.832C151.766 11.2773 152.285 10.8477 152.902 10.543C153.52 10.2383 154.234 10.0859 155.047 10.0859C155.609 10.0859 156.125 10.1719 156.594 10.3438C157.062 10.5078 157.465 10.7695 157.801 11.1289C158.145 11.4805 158.41 11.9414 158.598 12.5117C158.785 13.0742 158.879 13.75 158.879 14.5391V23H155.504V14.9141C155.504 14.3359 155.426 13.8906 155.27 13.5781C155.113 13.2656 154.891 13.0469 154.602 12.9219C154.32 12.7969 153.98 12.7344 153.582 12.7344C153.145 12.7344 152.762 12.8242 152.434 13.0039C152.113 13.1836 151.848 13.4336 151.637 13.7539C151.426 14.0664 151.27 14.4336 151.168 14.8555C151.066 15.2773 151.016 15.7305 151.016 16.2148ZM158.562 15.8281L157.355 15.9805C157.355 15.1523 157.457 14.3828 157.66 13.6719C157.871 12.9609 158.18 12.3359 158.586 11.7969C159 11.2578 159.512 10.8398 160.121 10.543C160.73 10.2383 161.434 10.0859 162.23 10.0859C162.84 10.0859 163.395 10.1758 163.895 10.3555C164.395 10.5273 164.82 10.8047 165.172 11.1875C165.531 11.5625 165.805 12.0547 165.992 12.6641C166.188 13.2734 166.285 14.0195 166.285 14.9023V23H162.898V14.9023C162.898 14.3164 162.82 13.8711 162.664 13.5664C162.516 13.2539 162.297 13.0391 162.008 12.9219C161.727 12.7969 161.391 12.7344 161 12.7344C160.594 12.7344 160.238 12.8164 159.934 12.9805C159.629 13.1367 159.375 13.3555 159.172 13.6367C158.969 13.918 158.816 14.2461 158.715 14.6211C158.613 14.9883 158.562 15.3906 158.562 15.8281ZM174.734 23.2344C173.75 23.2344 172.867 23.0781 172.086 22.7656C171.305 22.4453 170.641 22.0039 170.094 21.4414C169.555 20.8789 169.141 20.2266 168.852 19.4844C168.562 18.7344 168.418 17.9375 168.418 17.0938V16.625C168.418 15.6641 168.555 14.7852 168.828 13.9883C169.102 13.1914 169.492 12.5 170 11.9141C170.516 11.3281 171.141 10.8789 171.875 10.5664C172.609 10.2461 173.438 10.0859 174.359 10.0859C175.258 10.0859 176.055 10.2344 176.75 10.5312C177.445 10.8281 178.027 11.25 178.496 11.7969C178.973 12.3438 179.332 13 179.574 13.7656C179.816 14.5234 179.938 15.3672 179.938 16.2969V17.7031H169.859V15.4531H176.621V15.1953C176.621 14.7266 176.535 14.3086 176.363 13.9414C176.199 13.5664 175.949 13.2695 175.613 13.0508C175.277 12.832 174.848 12.7227 174.324 12.7227C173.879 12.7227 173.496 12.8203 173.176 13.0156C172.855 13.2109 172.594 13.4844 172.391 13.8359C172.195 14.1875 172.047 14.6016 171.945 15.0781C171.852 15.5469 171.805 16.0625 171.805 16.625V17.0938C171.805 17.6016 171.875 18.0703 172.016 18.5C172.164 18.9297 172.371 19.3008 172.637 19.6133C172.91 19.9258 173.238 20.168 173.621 20.3398C174.012 20.5117 174.453 20.5977 174.945 20.5977C175.555 20.5977 176.121 20.4805 176.645 20.2461C177.176 20.0039 177.633 19.6406 178.016 19.1562L179.656 20.9375C179.391 21.3203 179.027 21.6875 178.566 22.0391C178.113 22.3906 177.566 22.6797 176.926 22.9062C176.285 23.125 175.555 23.2344 174.734 23.2344ZM188.715 19.4961C188.715 19.2539 188.645 19.0352 188.504 18.8398C188.363 18.6445 188.102 18.4648 187.719 18.3008C187.344 18.1289 186.801 17.9727 186.09 17.832C185.449 17.6914 184.852 17.5156 184.297 17.3047C183.75 17.0859 183.273 16.8242 182.867 16.5195C182.469 16.2148 182.156 15.8555 181.93 15.4414C181.703 15.0195 181.59 14.5391 181.59 14C181.59 13.4688 181.703 12.9688 181.93 12.5C182.164 12.0312 182.496 11.6172 182.926 11.2578C183.363 10.8906 183.895 10.6055 184.52 10.4023C185.152 10.1914 185.863 10.0859 186.652 10.0859C187.754 10.0859 188.699 10.2617 189.488 10.6133C190.285 10.9648 190.895 11.4492 191.316 12.0664C191.746 12.6758 191.961 13.3711 191.961 14.1523H188.586C188.586 13.8242 188.516 13.5312 188.375 13.2734C188.242 13.0078 188.031 12.8008 187.742 12.6523C187.461 12.4961 187.094 12.418 186.641 12.418C186.266 12.418 185.941 12.4844 185.668 12.6172C185.395 12.7422 185.184 12.9141 185.035 13.1328C184.895 13.3438 184.824 13.5781 184.824 13.8359C184.824 14.0312 184.863 14.207 184.941 14.3633C185.027 14.5117 185.164 14.6484 185.352 14.7734C185.539 14.8984 185.781 15.0156 186.078 15.125C186.383 15.2266 186.758 15.3203 187.203 15.4062C188.117 15.5938 188.934 15.8398 189.652 16.1445C190.371 16.4414 190.941 16.8477 191.363 17.3633C191.785 17.8711 191.996 18.5391 191.996 19.3672C191.996 19.9297 191.871 20.4453 191.621 20.9141C191.371 21.3828 191.012 21.793 190.543 22.1445C190.074 22.4883 189.512 22.7578 188.855 22.9531C188.207 23.1406 187.477 23.2344 186.664 23.2344C185.484 23.2344 184.484 23.0234 183.664 22.6016C182.852 22.1797 182.234 21.6445 181.812 20.9961C181.398 20.3398 181.191 19.668 181.191 18.9805H184.391C184.406 19.4414 184.523 19.8125 184.742 20.0938C184.969 20.375 185.254 20.5781 185.598 20.7031C185.949 20.8281 186.328 20.8906 186.734 20.8906C187.172 20.8906 187.535 20.832 187.824 20.7148C188.113 20.5898 188.332 20.4258 188.48 20.2227C188.637 20.0117 188.715 19.7695 188.715 19.4961Z" fill="white"/>
<path d="M2.5 11C10.9293 18.5059 14.0122 21.4608 14.5 22" stroke="white" stroke-width="3"/>
<path d="M2 27L22 4L24.5 12.5L19.5 15" stroke="white" stroke-width="3"/>
</svg>
